<svg xmlns="http://www.w3.org/2000/svg" xmlns:xlink="http://www.w3.org/1999/xlink" width="500" zoomAndPan="magnify" viewBox="0 0 375 374.999991" height="500" preserveAspectRatio="xMidYMid meet" version="1.0"><defs><clipPath id="934ca02683"><path d="M 83.328125 149 L 265 149 L 265 330.804688 L 83.328125 330.804688 Z M 83.328125 149 " clip-rule="nonzero"/></clipPath><clipPath id="f4708fcbc7"><path d="M 156 44.304688 L 276 44.304688 L 276 164 L 156 164 Z M 156 44.304688 " clip-rule="nonzero"/></clipPath><clipPath id="df43acc162"><path d="M 241 125 L 337.578125 125 L 337.578125 222 L 241 222 Z M 241 125 " clip-rule="nonzero"/></clipPath><clipPath id="fca10bdf0a"><path d="M 131.613281 197.839844 L 217.113281 197.839844 L 217.113281 283.339844 L 131.613281 283.339844 Z M 131.613281 197.839844 " clip-rule="nonzero"/></clipPath></defs><g clip-path="url(#934ca02683)"><path fill="#000000" d="M 235.914062 202.667969 L 245.984375 183.359375 L 230.496094 167.875 L 211.140625 177.976562 C 205.121094 174.367188 198.53125 171.609375 191.539062 169.871094 L 184.992188 149.027344 L 163.09375 149.027344 L 156.542969 169.871094 C 149.554688 171.609375 142.964844 174.367188 136.949219 177.976562 L 117.585938 167.875 L 102.101562 183.359375 L 112.171875 202.664062 C 108.519531 208.707031 105.734375 215.328125 103.972656 222.359375 L 83.25 228.867188 L 83.25 250.769531 L 103.890625 257.257812 C 105.632812 264.355469 108.417969 271.039062 112.085938 277.136719 L 102.097656 296.277344 L 117.585938 311.765625 L 136.667969 301.804688 C 142.789062 305.515625 149.503906 308.335938 156.640625 310.097656 L 163.085938 330.617188 L 184.984375 330.617188 L 191.433594 310.097656 C 198.566406 308.335938 205.28125 305.515625 211.40625 301.804688 L 230.488281 311.765625 L 245.976562 296.277344 L 235.992188 277.136719 C 239.65625 271.039062 242.445312 264.355469 244.183594 257.257812 L 264.820312 250.769531 L 264.820312 228.867188 L 244.101562 222.359375 C 242.351562 215.328125 239.566406 208.710938 235.914062 202.667969 Z M 174.042969 287.882812 C 147.585938 287.882812 126.144531 266.433594 126.144531 239.972656 C 126.144531 213.511719 147.585938 192.0625 174.042969 192.0625 C 200.5 192.0625 221.945312 213.511719 221.945312 239.972656 C 221.945312 266.433594 200.5 287.882812 174.042969 287.882812 Z M 174.042969 287.882812 " fill-opacity="1" fill-rule="nonzero"/></g><g clip-path="url(#f4708fcbc7)"><path fill="#000000" d="M 170.417969 118.144531 L 161.078125 128.777344 L 168.53125 141.050781 L 182.238281 137.679688 C 185.554688 140.992188 189.398438 143.835938 193.667969 146.066406 L 194.582031 160.136719 L 208.527344 163.542969 L 215.828125 151.480469 C 220.644531 151.46875 225.359375 150.714844 229.835938 149.308594 L 240.441406 158.621094 L 252.714844 151.167969 L 249.332031 137.425781 C 252.613281 134.113281 255.429688 130.289062 257.644531 126.042969 L 271.796875 125.121094 L 275.207031 111.175781 L 263.027344 103.800781 C 262.996094 99.050781 262.253906 94.398438 260.863281 89.984375 L 270.285156 79.253906 L 262.832031 66.980469 L 248.929688 70.402344 C 245.660156 67.167969 241.890625 64.386719 237.710938 62.191406 L 236.78125 47.894531 L 222.835938 44.488281 L 215.417969 56.746094 C 210.695312 56.765625 206.074219 57.496094 201.679688 58.859375 L 190.921875 49.410156 L 178.648438 56.863281 L 182.0625 70.726562 C 178.792969 74.003906 175.988281 77.785156 173.773438 81.992188 L 159.566406 82.914062 L 156.160156 96.863281 L 168.296875 104.207031 C 168.296875 109 169.03125 113.6875 170.417969 118.144531 Z M 185.148438 96.664062 C 189.265625 79.8125 206.257812 69.492188 223.109375 73.605469 C 239.957031 77.722656 250.28125 94.722656 246.164062 111.570312 C 242.046875 128.421875 225.050781 138.742188 208.203125 134.628906 C 191.355469 130.511719 181.027344 113.515625 185.148438 96.664062 Z M 185.148438 96.664062 " fill-opacity="1" fill-rule="nonzero"/></g><g clip-path="url(#df43acc162)"><path fill="#000000" d="M 327.09375 169.375 C 326.707031 165.734375 325.792969 162.125 324.320312 158.667969 L 330.953125 149.390625 L 324.074219 140.269531 L 313.335938 144.082031 C 310.417969 141.714844 307.203125 139.835938 303.8125 138.460938 L 301.941406 127.222656 L 290.632812 125.628906 L 285.753906 135.886719 C 282.085938 136.261719 278.457031 137.175781 274.972656 138.652344 L 265.757812 132.058594 L 256.632812 138.929688 L 260.40625 149.570312 C 257.996094 152.519531 256.085938 155.78125 254.695312 159.222656 L 243.585938 161.066406 L 241.992188 172.382812 L 252.128906 177.207031 C 252.511719 180.925781 253.441406 184.605469 254.941406 188.132812 L 248.421875 197.257812 L 255.292969 206.382812 L 265.867188 202.632812 C 268.835938 205.050781 272.125 206.964844 275.589844 208.355469 L 277.429688 219.433594 L 288.738281 221.027344 L 293.582031 210.859375 C 297.269531 210.472656 300.933594 209.535156 304.433594 208.035156 L 313.613281 214.601562 L 322.738281 207.726562 L 318.949219 197.050781 C 321.324219 194.109375 323.207031 190.871094 324.582031 187.449219 L 335.78125 185.589844 L 337.375 174.277344 Z M 304.65625 193.335938 C 293.628906 201.640625 277.96875 199.433594 269.660156 188.410156 C 261.355469 177.382812 263.566406 161.714844 274.589844 153.414062 C 285.617188 145.109375 301.28125 147.3125 309.585938 158.339844 C 317.882812 169.363281 315.675781 185.03125 304.65625 193.335938 Z M 304.65625 193.335938 " fill-opacity="1" fill-rule="nonzero"/></g><g clip-path="url(#fca10bdf0a)"><path fill="#000000" d="M 185.066406 260.773438 C 184.910156 260.121094 184.75 259.449219 184.605469 258.765625 C 183.03125 258.816406 181.460938 258.871094 179.890625 258.921875 C 173.484375 259.140625 166.867188 259.363281 160.285156 259.523438 C 160.226562 260.132812 160.15625 260.730469 160.085938 261.3125 C 160.015625 261.90625 159.941406 262.511719 159.882812 263.128906 L 185.597656 263.128906 C 185.4375 262.324219 185.25 261.539062 185.066406 260.773438 Z M 158.707031 264.925781 L 158.707031 268.175781 C 164.070312 268.117188 169.476562 268.023438 174.714844 267.929688 C 179.792969 267.839844 185.035156 267.746094 190.242188 267.6875 C 189.832031 266.765625 189.390625 265.824219 188.914062 264.925781 Z M 174.476562 279.089844 C 153.273438 279.089844 136.085938 261.902344 136.085938 240.703125 C 136.085938 219.5 153.273438 202.316406 174.476562 202.316406 C 195.675781 202.316406 212.863281 219.5 212.863281 240.703125 C 212.863281 261.902344 195.675781 279.089844 174.476562 279.089844 Z M 174.476562 197.839844 C 150.804688 197.839844 131.613281 217.03125 131.613281 240.703125 C 131.613281 264.375 150.804688 283.5625 174.476562 283.5625 C 198.144531 283.5625 217.335938 264.375 217.335938 240.703125 C 217.335938 217.03125 198.144531 197.839844 174.476562 197.839844 Z M 192.195312 269.101562 C 191.722656 269.410156 191.214844 269.449219 190.828125 269.449219 C 190.660156 269.449219 190.496094 269.441406 190.335938 269.433594 C 190.191406 269.425781 190.050781 269.417969 189.921875 269.417969 C 188.859375 269.417969 187.773438 269.445312 186.71875 269.472656 C 185.652344 269.5 184.550781 269.53125 183.464844 269.53125 C 179.914062 269.53125 176.308594 269.617188 172.824219 269.699219 L 172.777344 269.703125 C 169.3125 269.785156 165.726562 269.871094 162.253906 269.871094 C 160.570312 269.871094 159.039062 269.851562 157.570312 269.8125 C 157.277344 269.804688 157.039062 269.574219 157.023438 269.28125 C 156.929688 267.660156 156.929688 265.570312 157.023438 263.828125 C 157.03125 263.691406 157.089844 263.558594 157.191406 263.460938 C 157.464844 263.1875 157.84375 263.164062 158.148438 263.144531 C 158.203125 262.691406 158.246094 262.214844 158.285156 261.753906 C 158.390625 260.554688 158.496094 259.3125 158.847656 258.289062 C 158.898438 258.140625 159.007812 258.019531 159.152344 257.957031 C 159.488281 257.808594 159.890625 257.785156 160.238281 257.785156 C 160.273438 257.785156 160.308594 257.789062 160.34375 257.789062 C 158.304688 255.507812 156.296875 251.90625 156.519531 246.65625 C 156.628906 243.980469 157.253906 241.5 158.375 239.28125 C 159.378906 237.296875 160.757812 235.601562 162.378906 234.367188 C 162.632812 231.957031 164.011719 230.722656 165.300781 229.929688 C 165.207031 228.898438 165.085938 227.851562 164.96875 226.835938 C 164.730469 224.789062 164.488281 222.671875 164.433594 220.589844 C 164.429688 220.371094 164.546875 220.171875 164.738281 220.074219 C 165.0625 219.910156 165.441406 219.894531 165.808594 219.878906 C 165.875 219.878906 165.941406 219.875 166.003906 219.871094 C 166.011719 219.398438 166.039062 218.949219 166.0625 218.507812 C 166.085938 218.089844 166.105469 217.6875 166.113281 217.273438 C 163.980469 216.5 162.867188 214.925781 162.972656 212.796875 C 162.984375 212.566406 163.136719 212.367188 163.359375 212.292969 C 164.085938 212.054688 164.847656 212.03125 165.582031 212.011719 C 165.824219 212.007812 166.070312 212 166.308594 211.984375 C 169.53125 211.789062 172.417969 211.640625 175.132812 211.535156 C 175.140625 211.535156 175.148438 211.535156 175.15625 211.535156 C 175.230469 211.535156 175.300781 211.550781 175.371094 211.578125 C 175.480469 211.621094 175.640625 211.699219 175.765625 211.859375 C 175.832031 211.945312 175.875 212.046875 175.882812 212.152344 C 176.078125 214.105469 175.316406 215.730469 173.738281 216.765625 C 173.765625 216.964844 173.789062 217.167969 173.8125 217.363281 C 173.886719 218.003906 173.964844 218.664062 174.085938 219.265625 C 174.984375 219.222656 175.890625 219.140625 176.773438 219.0625 C 178.089844 218.949219 179.449219 218.828125 180.792969 218.828125 C 180.941406 218.828125 181.089844 218.832031 181.230469 218.832031 C 181.492188 218.839844 181.714844 219.023438 181.769531 219.277344 C 182.097656 220.808594 182.222656 222.410156 182.34375 223.957031 C 182.390625 224.597656 182.441406 225.261719 182.507812 225.90625 C 182.621094 227.03125 182.738281 228.164062 182.855469 229.292969 C 183.414062 234.78125 183.996094 240.457031 184.363281 245.96875 C 184.382812 246.257812 184.179688 246.511719 183.898438 246.558594 C 182.902344 246.730469 181.800781 246.796875 180.738281 246.859375 C 180.066406 246.898438 179.378906 246.941406 178.722656 247.007812 C 178.753906 247.371094 178.796875 247.734375 178.839844 248.09375 C 178.9375 248.945312 179.042969 249.828125 178.972656 250.710938 C 178.953125 250.957031 178.777344 251.160156 178.539062 251.214844 C 177.25 251.507812 175.421875 251.679688 173.523438 251.679688 C 173.449219 251.679688 173.375 251.675781 173.300781 251.675781 C 173.0625 251.675781 172.847656 251.523438 172.773438 251.296875 C 172.523438 250.558594 172.476562 249.660156 172.429688 248.792969 C 172.40625 248.335938 172.382812 247.867188 172.328125 247.441406 C 171.96875 247.46875 171.601562 247.503906 171.222656 247.539062 C 170.304688 247.621094 169.359375 247.710938 168.433594 247.710938 C 168.183594 247.710938 167.941406 247.703125 167.714844 247.691406 C 167.464844 247.675781 167.253906 247.5 167.199219 247.253906 C 166.878906 245.855469 166.742188 244.273438 166.609375 242.738281 C 166.546875 242 166.480469 241.242188 166.394531 240.515625 C 166.015625 240.40625 165.6875 240.257812 165.375 240.101562 C 163.734375 242.285156 162.277344 244.785156 162.242188 248.144531 C 162.203125 252.441406 164.722656 255.019531 167.4375 256.925781 C 167.453125 256.847656 167.472656 256.773438 167.503906 256.699219 C 167.578125 256.496094 167.765625 256.355469 167.980469 256.339844 C 172.445312 255.976562 178.304688 255.542969 184.066406 255.382812 C 184.074219 255.382812 184.078125 255.382812 184.082031 255.382812 C 184.242188 255.382812 184.390625 255.449219 184.496094 255.566406 C 184.855469 255.953125 184.832031 256.539062 184.8125 257.058594 C 184.8125 257.058594 184.8125 257.0625 184.8125 257.0625 C 184.863281 257.0625 184.914062 257.0625 184.964844 257.0625 C 185.167969 257.0625 185.429688 257.070312 185.667969 257.152344 C 185.832031 257.210938 185.964844 257.339844 186.019531 257.503906 C 186.351562 258.492188 186.585938 259.578125 186.8125 260.628906 C 186.996094 261.472656 187.183594 262.339844 187.417969 263.140625 C 187.597656 263.140625 187.785156 263.136719 187.972656 263.128906 C 188.167969 263.125 188.371094 263.117188 188.570312 263.117188 C 188.9375 263.117188 189.414062 263.136719 189.820312 263.269531 C 189.957031 263.316406 190.070312 263.414062 190.140625 263.542969 L 190.277344 263.808594 C 191.039062 265.261719 191.824219 266.761719 192.417969 268.445312 C 192.503906 268.691406 192.410156 268.960938 192.195312 269.101562 Z M 174.476562 204.03125 C 154.222656 204.03125 137.800781 220.449219 137.800781 240.703125 C 137.800781 260.957031 154.222656 277.375 174.476562 277.375 C 194.726562 277.375 211.148438 260.957031 211.148438 240.703125 C 211.148438 220.449219 194.726562 204.03125 174.476562 204.03125 Z M 168.046875 239.046875 C 168.089844 239.046875 168.132812 239.046875 168.175781 239.046875 C 169.246094 239.011719 170.222656 238.617188 170.9375 237.9375 C 171.695312 237.210938 172.105469 236.214844 172.125 235.050781 C 172.160156 232.933594 170.601562 231.234375 168.417969 231.015625 C 168.277344 231 168.136719 230.992188 167.996094 230.992188 C 166.546875 230.992188 165.257812 231.769531 164.550781 233.070312 C 163.824219 234.398438 163.894531 235.972656 164.738281 237.28125 C 165.289062 238.136719 166.445312 239.046875 168.046875 239.046875 Z M 166.457031 224.328125 C 166.632812 225.964844 166.8125 227.648438 166.960938 229.351562 C 167.296875 229.304688 167.632812 229.28125 167.960938 229.28125 C 171.171875 229.28125 173.574219 231.386719 173.808594 234.398438 C 173.945312 236.167969 173.429688 237.777344 172.359375 238.933594 C 171.335938 240.035156 169.851562 240.667969 168.148438 240.730469 C 168.246094 241.636719 168.339844 242.554688 168.429688 243.445312 C 168.515625 244.273438 168.601562 245.128906 168.695312 245.972656 C 171.128906 245.804688 173.582031 245.628906 175.960938 245.457031 C 178.144531 245.296875 180.394531 245.132812 182.625 244.980469 C 182.324219 241.902344 182.027344 238.777344 181.734375 235.75 C 181.257812 230.761719 180.765625 225.605469 180.25 220.554688 C 178.285156 220.699219 176.300781 220.847656 174.375 220.992188 C 171.6875 221.191406 168.914062 221.398438 166.171875 221.597656 C 166.265625 222.515625 166.363281 223.433594 166.457031 224.328125 Z M 161.246094 256.144531 C 161.597656 256.617188 162.332031 257.601562 162.722656 257.703125 C 162.945312 257.761719 163.203125 257.789062 163.511719 257.789062 C 163.949219 257.789062 164.429688 257.730469 164.894531 257.671875 L 164.90625 257.671875 C 165.082031 257.648438 165.261719 257.628906 165.441406 257.609375 C 164.5625 256.886719 163.519531 255.925781 162.660156 254.757812 C 161.515625 253.203125 160.847656 251.539062 160.621094 249.667969 C 160.078125 245.25 161.867188 241.945312 163.972656 239.050781 C 163.246094 238.296875 162.773438 237.476562 162.53125 236.527344 C 159.980469 238.894531 158.433594 242.570312 158.257812 246.761719 C 158.109375 250.214844 159.035156 253.261719 161.003906 255.828125 C 161.078125 255.921875 161.160156 256.03125 161.246094 256.144531 Z M 172.265625 218.921875 C 172.199219 218.417969 172.128906 217.90625 172.054688 217.398438 C 171.300781 217.570312 170.210938 217.757812 169.011719 217.757812 C 168.605469 217.757812 168.214844 217.738281 167.847656 217.691406 C 167.835938 218.023438 167.816406 218.34375 167.800781 218.65625 C 167.777344 219.023438 167.757812 219.378906 167.75 219.738281 C 168.449219 219.683594 169.15625 219.632812 169.847656 219.582031 C 170.664062 219.523438 171.503906 219.460938 172.332031 219.390625 C 172.308594 219.234375 172.289062 219.078125 172.265625 218.921875 Z M 173.449219 214.71875 C 173.839844 214.316406 174.066406 213.839844 174.128906 213.304688 C 172.675781 213.375 171.21875 213.457031 169.800781 213.539062 C 168.148438 213.628906 166.445312 213.726562 164.746094 213.808594 C 165.199219 215.296875 167.324219 216.074219 169.40625 216.074219 C 171.117188 216.074219 172.628906 215.566406 173.449219 214.71875 Z M 177 247.121094 C 176.0625 247.199219 175.082031 247.277344 174.066406 247.328125 C 174.101562 247.855469 174.144531 248.378906 174.1875 248.890625 C 174.214844 249.238281 174.246094 249.59375 174.273438 249.949219 C 174.921875 249.898438 175.570312 249.84375 176.203125 249.792969 C 176.550781 249.761719 176.894531 249.734375 177.242188 249.703125 C 177.214844 249.414062 177.1875 249.121094 177.160156 248.835938 C 177.105469 248.277344 177.050781 247.699219 177 247.121094 " fill-opacity="1" fill-rule="nonzero"/></g></svg>